<svg width="127" height="25" viewBox="0 0 127 25" fill="none" xmlns="http://www.w3.org/2000/svg">
<path d="M21.1164 7.64C21.1164 9 20.6364 10.176 19.6764 11.168C18.7164 12.144 17.3164 12.848 15.4764 13.28C16.4684 13.552 17.2204 14 17.7324 14.624C18.2444 15.232 18.5004 15.936 18.5004 16.736C18.5004 18 18.1004 19.096 17.3004 20.024C16.5164 20.952 15.3644 21.672 13.8444 22.184C12.3244 22.68 10.4924 22.928 8.34837 22.928C7.54837 22.928 6.90837 22.904 6.42837 22.856C6.41237 23.304 6.22037 23.64 5.85237 23.864C5.48437 24.088 5.01237 24.2 4.43637 24.2C3.86037 24.2 3.46037 24.072 3.23637 23.816C3.02837 23.56 2.94037 23.184 2.97237 22.688C3.11637 20.448 3.39637 18.104 3.81237 15.656C4.22837 13.192 4.75637 10.816 5.39637 8.528C5.50837 8.128 5.73237 7.848 6.06837 7.688C6.40437 7.528 6.84437 7.448 7.38837 7.448C8.36437 7.448 8.85237 7.72 8.85237 8.264C8.85237 8.488 8.80437 8.744 8.70837 9.032C8.29237 10.28 7.87637 11.976 7.46037 14.12C7.04437 16.248 6.74837 18.28 6.57237 20.216C7.34037 20.28 7.96437 20.312 8.44437 20.312C10.6844 20.312 12.3244 19.992 13.3644 19.352C14.4204 18.696 14.9484 17.864 14.9484 16.856C14.9484 16.152 14.6444 15.56 14.0364 15.08C13.4444 14.6 12.4444 14.336 11.0364 14.288C10.7164 14.272 10.4924 14.192 10.3644 14.048C10.2364 13.904 10.1724 13.672 10.1724 13.352C10.1724 12.888 10.2684 12.512 10.4604 12.224C10.6524 11.936 11.0044 11.784 11.5164 11.768C12.6524 11.736 13.6764 11.568 14.5884 11.264C15.5164 10.96 16.2444 10.536 16.7724 9.992C17.3004 9.432 17.5644 8.784 17.5644 8.048C17.5644 7.12 17.1084 6.392 16.1964 5.864C15.2844 5.32 13.8844 5.048 11.9964 5.048C10.2844 5.048 8.62837 5.272 7.02837 5.72C5.42837 6.152 4.06837 6.704 2.94837 7.376C2.43637 7.68 2.00437 7.832 1.65237 7.832C1.36437 7.832 1.14037 7.736 0.980374 7.544C0.836374 7.336 0.764374 7.08 0.764374 6.776C0.764374 6.376 0.844374 6.032 1.00437 5.744C1.18037 5.456 1.58837 5.128 2.22837 4.76C3.57237 3.992 5.14837 3.392 6.95637 2.96C8.76437 2.528 10.6124 2.312 12.5004 2.312C15.3964 2.312 17.5564 2.8 18.9804 3.776C20.4044 4.752 21.1164 6.04 21.1164 7.64ZM22.7632 23.12C22.1552 23.12 21.7232 22.8 21.4672 22.16C21.2272 21.52 21.1072 20.496 21.1072 19.088C21.1072 17.008 21.4032 15.032 21.9952 13.16C22.1392 12.696 22.3712 12.36 22.6912 12.152C23.0272 11.928 23.4912 11.816 24.0832 11.816C24.4032 11.816 24.6272 11.856 24.7552 11.936C24.8832 12.016 24.9472 12.168 24.9472 12.392C24.9472 12.648 24.8272 13.224 24.5872 14.12C24.4272 14.76 24.2992 15.32 24.2032 15.8C24.1072 16.28 24.0272 16.872 23.9632 17.576C24.4912 16.2 25.0832 15.08 25.7392 14.216C26.3952 13.352 27.0352 12.736 27.6592 12.368C28.2992 12 28.8832 11.816 29.4112 11.816C30.4512 11.816 30.9712 12.336 30.9712 13.376C30.9712 13.584 30.8992 14.088 30.7552 14.888C30.6272 15.528 30.5632 15.928 30.5632 16.088C30.5632 16.648 30.7632 16.928 31.1632 16.928C31.6112 16.928 32.1872 16.576 32.8912 15.872C33.0992 15.664 33.3152 15.56 33.5392 15.56C33.7472 15.56 33.9072 15.656 34.0192 15.848C34.1472 16.024 34.2112 16.264 34.2112 16.568C34.2112 17.16 34.0512 17.624 33.7312 17.96C33.2832 18.424 32.7552 18.824 32.1472 19.16C31.5552 19.48 30.9232 19.64 30.2512 19.64C29.4032 19.64 28.7552 19.424 28.3072 18.992C27.8752 18.56 27.6592 17.976 27.6592 17.24C27.6592 17 27.6832 16.76 27.7312 16.52C27.7632 16.2 27.7792 15.984 27.7792 15.872C27.7792 15.616 27.6912 15.488 27.5152 15.488C27.2752 15.488 26.9552 15.76 26.5552 16.304C26.1712 16.832 25.7872 17.536 25.4032 18.416C25.0192 19.296 24.7072 20.224 24.4672 21.2C24.2912 21.952 24.0832 22.464 23.8432 22.736C23.6192 22.992 23.2592 23.12 22.7632 23.12ZM35.1731 23.12C34.1811 23.12 33.3891 22.76 32.7971 22.04C32.2051 21.32 31.9091 20.376 31.9091 19.208C31.9091 17.928 32.2051 16.72 32.7971 15.584C33.3891 14.432 34.1731 13.512 35.1491 12.824C36.1411 12.12 37.1891 11.768 38.2931 11.768C38.6451 11.768 38.8771 11.84 38.9891 11.984C39.1171 12.112 39.2211 12.352 39.3011 12.704C39.6371 12.64 39.9891 12.608 40.3571 12.608C41.1411 12.608 41.5331 12.888 41.5331 13.448C41.5331 13.784 41.4131 14.584 41.1731 15.848C40.8051 17.688 40.6211 18.968 40.6211 19.688C40.6211 19.928 40.6771 20.12 40.7891 20.264C40.9171 20.408 41.0771 20.48 41.2691 20.48C41.5731 20.48 41.9411 20.288 42.3731 19.904C42.8051 19.504 43.3891 18.864 44.1251 17.984C44.3171 17.76 44.5331 17.648 44.7731 17.648C44.9811 17.648 45.1411 17.744 45.2531 17.936C45.3811 18.128 45.4451 18.392 45.4451 18.728C45.4451 19.368 45.2931 19.864 44.9891 20.216C44.3331 21.032 43.6371 21.72 42.9011 22.28C42.1651 22.84 41.4531 23.12 40.7651 23.12C40.2371 23.12 39.7491 22.944 39.3011 22.592C38.8691 22.224 38.5411 21.728 38.3171 21.104C37.4851 22.448 36.4371 23.12 35.1731 23.12ZM36.0371 20.696C36.3891 20.696 36.7251 20.488 37.0451 20.072C37.3651 19.656 37.5971 19.104 37.7411 18.416L38.6291 14C37.9571 14.016 37.3331 14.272 36.7571 14.768C36.1971 15.248 35.7491 15.888 35.4131 16.688C35.0771 17.488 34.9091 18.336 34.9091 19.232C34.9091 19.728 35.0051 20.096 35.1971 20.336C35.4051 20.576 35.6851 20.696 36.0371 20.696ZM55.2418 17.648C55.4498 17.648 55.6098 17.744 55.7218 17.936C55.8498 18.128 55.9138 18.392 55.9138 18.728C55.9138 19.32 55.7618 19.816 55.4578 20.216C54.7058 21.192 53.7698 21.96 52.6498 22.52C51.5458 23.08 50.2978 23.36 48.9058 23.36C47.8178 23.36 46.8738 23.2 46.0738 22.88C45.2738 22.544 44.6578 22.096 44.2258 21.536C43.8098 20.96 43.6018 20.32 43.6018 19.616C43.6018 18.56 44.0258 17.624 44.8738 16.808C45.7218 15.992 46.9378 15.208 48.5218 14.456L44.5858 14.552C44.2338 14.568 43.9618 14.448 43.7698 14.192C43.5938 13.92 43.5058 13.6 43.5058 13.232C43.5058 12.848 43.5938 12.512 43.7698 12.224C43.9618 11.92 44.2178 11.768 44.5378 11.768C45.2738 11.768 46.2578 11.824 47.4898 11.936C47.7458 11.952 48.2098 11.984 48.8818 12.032C49.5698 12.08 50.1458 12.104 50.6098 12.104C50.7698 12.104 51.0738 12.04 51.5218 11.912C51.6018 11.896 51.7538 11.856 51.9778 11.792C52.2178 11.728 52.4178 11.696 52.5778 11.696C52.8338 11.696 53.0418 11.808 53.2018 12.032C53.3778 12.256 53.4658 12.6 53.4658 13.064C53.4658 13.576 53.3458 13.976 53.1058 14.264C52.8658 14.552 52.4898 14.808 51.9778 15.032C50.5218 15.656 49.3138 16.328 48.3538 17.048C47.3938 17.752 46.9138 18.456 46.9138 19.16C46.9138 19.608 47.1218 19.976 47.5378 20.264C47.9538 20.552 48.5698 20.696 49.3858 20.696C50.2818 20.696 51.1858 20.472 52.0978 20.024C53.0258 19.576 53.8578 18.896 54.5938 17.984C54.7858 17.76 55.0018 17.648 55.2418 17.648ZM76.5852 17.648C76.7932 17.648 76.9532 17.744 77.0652 17.936C77.1932 18.128 77.2572 18.392 77.2572 18.728C77.2572 19.352 77.1052 19.848 76.8012 20.216C76.0332 21.144 75.2572 21.864 74.4732 22.376C73.6892 22.872 72.7612 23.12 71.6892 23.12C70.6492 23.12 69.7612 22.84 69.0252 22.28C68.3052 21.72 67.6172 20.76 66.9612 19.4C66.4332 18.312 66.0172 17.512 65.7132 17C65.4092 16.472 65.1052 16.096 64.8012 15.872C64.5132 15.648 64.1532 15.512 63.7212 15.464C63.6572 15.8 63.4732 16.856 63.1692 18.632C63.0412 19.432 62.9612 19.92 62.9292 20.096C62.7692 21.072 62.4492 21.824 61.9692 22.352C61.4892 22.864 60.7612 23.12 59.7852 23.12C58.7132 23.12 57.7612 22.808 56.9292 22.184C56.1132 21.544 55.4812 20.664 55.0332 19.544C54.5852 18.408 54.3612 17.12 54.3612 15.68C54.3612 12.992 54.8252 10.672 55.7532 8.72C56.6972 6.768 58.0092 5.28 59.6892 4.256C61.3852 3.216 63.3372 2.696 65.5452 2.696C67.0812 2.696 68.3692 2.928 69.4092 3.392C70.4492 3.856 71.2172 4.496 71.7132 5.312C72.2252 6.128 72.4812 7.048 72.4812 8.072C72.4812 8.968 72.2652 9.848 71.8332 10.712C71.4172 11.56 70.7852 12.312 69.9372 12.968C69.0892 13.624 68.0572 14.112 66.8412 14.432C67.6092 14.64 68.2012 14.976 68.6172 15.44C69.0332 15.904 69.4492 16.584 69.8652 17.48C70.3132 18.44 70.7532 19.144 71.1852 19.592C71.6332 20.04 72.1452 20.264 72.7212 20.264C73.2332 20.264 73.7212 20.096 74.1852 19.76C74.6492 19.408 75.2332 18.816 75.9372 17.984C76.1292 17.76 76.3452 17.648 76.5852 17.648ZM60.4092 15.44C59.8652 15.44 59.4892 15.312 59.2812 15.056C59.0892 14.8 58.9932 14.512 58.9932 14.192C58.9932 13.808 59.1132 13.504 59.3532 13.28C59.6092 13.056 59.8972 12.944 60.2172 12.944H60.8172C61.0732 11.376 61.3132 10.024 61.5372 8.888C61.7452 7.848 62.4172 7.328 63.5532 7.328C64.4652 7.328 64.9212 7.736 64.9212 8.552C64.9212 8.728 64.9132 8.864 64.8972 8.96L64.1772 12.944C65.0412 12.896 65.8252 12.688 66.5292 12.32C67.2492 11.952 67.8172 11.44 68.2332 10.784C68.6652 10.128 68.8812 9.384 68.8812 8.552C68.8812 7.544 68.5372 6.752 67.8492 6.176C67.1612 5.6 66.1532 5.312 64.8252 5.312C63.2572 5.312 61.8812 5.704 60.6972 6.488C59.5292 7.256 58.6172 8.408 57.9612 9.944C57.3052 11.464 56.9772 13.32 56.9772 15.512C56.9772 16.536 57.0812 17.416 57.2892 18.152C57.4972 18.888 57.7532 19.44 58.0572 19.808C58.3612 20.176 58.6492 20.36 58.9212 20.36C59.1292 20.36 59.2972 20.256 59.4252 20.048C59.5692 19.84 59.6812 19.504 59.7612 19.04L60.4092 15.44ZM85.7857 17.648C85.9937 17.648 86.1537 17.744 86.2657 17.936C86.3937 18.128 86.4577 18.392 86.4577 18.728C86.4577 19.368 86.3057 19.864 86.0017 20.216C85.4097 20.936 84.5697 21.6 83.4817 22.208C82.4097 22.816 81.2577 23.12 80.0257 23.12C78.3457 23.12 77.0417 22.664 76.1137 21.752C75.1857 20.84 74.7217 19.592 74.7217 18.008C74.7217 16.904 74.9537 15.88 75.4177 14.936C75.8817 13.976 76.5217 13.216 77.3377 12.656C78.1697 12.096 79.1057 11.816 80.1457 11.816C81.0737 11.816 81.8177 12.096 82.3777 12.656C82.9377 13.2 83.2177 13.944 83.2177 14.888C83.2177 15.992 82.8177 16.944 82.0177 17.744C81.2337 18.528 79.8977 19.152 78.0097 19.616C78.4097 20.352 79.1697 20.72 80.2897 20.72C81.0097 20.72 81.8257 20.472 82.7377 19.976C83.6657 19.464 84.4657 18.8 85.1377 17.984C85.3297 17.76 85.5457 17.648 85.7857 17.648ZM79.7377 14.168C79.1457 14.168 78.6417 14.512 78.2257 15.2C77.8257 15.888 77.6257 16.72 77.6257 17.696V17.744C78.5697 17.52 79.3137 17.184 79.8577 16.736C80.4017 16.288 80.6737 15.768 80.6737 15.176C80.6737 14.872 80.5857 14.632 80.4097 14.456C80.2497 14.264 80.0257 14.168 79.7377 14.168ZM89.3276 23.12C87.7596 23.12 86.5356 22.68 85.6556 21.8C84.7916 20.904 84.3596 19.728 84.3596 18.272C84.3596 16.976 84.6156 15.84 85.1276 14.864C85.6396 13.888 86.3036 13.136 87.1196 12.608C87.9356 12.08 88.7916 11.816 89.6876 11.816C90.5676 11.816 91.2476 12.08 91.7276 12.608C92.2236 13.12 92.4716 13.784 92.4716 14.6C92.4716 15.272 92.3196 15.84 92.0156 16.304C91.7276 16.768 91.3436 17 90.8636 17C90.5596 17 90.3116 16.928 90.1196 16.784C89.9436 16.64 89.8556 16.44 89.8556 16.184C89.8556 16.072 89.8716 15.944 89.9036 15.8C89.9356 15.656 89.9596 15.552 89.9756 15.488C90.0556 15.248 90.0956 15.024 90.0956 14.816C90.0956 14.608 90.0396 14.448 89.9276 14.336C89.8316 14.224 89.6876 14.168 89.4956 14.168C89.1276 14.168 88.7836 14.336 88.4636 14.672C88.1436 14.992 87.8876 15.432 87.6956 15.992C87.5036 16.552 87.4076 17.168 87.4076 17.84C87.4076 19.696 88.2156 20.624 89.8316 20.624C90.4876 20.624 91.1916 20.408 91.9436 19.976C92.7116 19.528 93.4636 18.864 94.1996 17.984C94.3916 17.76 94.6076 17.648 94.8476 17.648C95.0556 17.648 95.2156 17.744 95.3276 17.936C95.4556 18.128 95.5196 18.392 95.5196 18.728C95.5196 19.336 95.3676 19.832 95.0636 20.216C94.3116 21.144 93.4076 21.864 92.3516 22.376C91.3116 22.872 90.3036 23.12 89.3276 23.12ZM96.9635 10.232C96.2915 10.232 95.7875 10.08 95.4515 9.776C95.1155 9.456 94.9475 9.016 94.9475 8.456C94.9475 7.896 95.1635 7.432 95.5955 7.064C96.0435 6.68 96.5955 6.488 97.2515 6.488C97.8435 6.488 98.3235 6.632 98.6915 6.92C99.0595 7.208 99.2435 7.616 99.2435 8.144C99.2435 8.784 99.0355 9.296 98.6195 9.68C98.2035 10.048 97.6515 10.232 96.9635 10.232ZM96.7715 23.12C95.7315 23.12 94.9715 22.752 94.4915 22.016C94.0275 21.28 93.7955 20.304 93.7955 19.088C93.7955 18.368 93.8835 17.448 94.0595 16.328C94.2515 15.192 94.4915 14.136 94.7795 13.16C94.9235 12.648 95.1155 12.296 95.3555 12.104C95.5955 11.912 95.9795 11.816 96.5075 11.816C97.3235 11.816 97.7315 12.088 97.7315 12.632C97.7315 13.032 97.5795 13.96 97.2755 15.416C96.8915 17.176 96.6995 18.368 96.6995 18.992C96.6995 19.472 96.7635 19.84 96.8915 20.096C97.0195 20.352 97.2355 20.48 97.5395 20.48C97.8275 20.48 98.1875 20.28 98.6195 19.88C99.0515 19.48 99.6275 18.848 100.347 17.984C100.539 17.76 100.755 17.648 100.995 17.648C101.203 17.648 101.363 17.744 101.475 17.936C101.603 18.128 101.667 18.392 101.667 18.728C101.667 19.368 101.515 19.864 101.211 20.216C99.6275 22.152 98.1475 23.12 96.7715 23.12ZM104.55 23.12C102.982 23.12 101.758 22.68 100.878 21.8C100.014 20.904 99.5818 19.728 99.5818 18.272C99.5818 16.976 99.8378 15.84 100.35 14.864C100.862 13.888 101.526 13.136 102.342 12.608C103.158 12.08 104.014 11.816 104.91 11.816C105.79 11.816 106.47 12.08 106.95 12.608C107.446 13.12 107.694 13.784 107.694 14.6C107.694 15.272 107.542 15.84 107.238 16.304C106.95 16.768 106.566 17 106.086 17C105.782 17 105.534 16.928 105.342 16.784C105.166 16.64 105.078 16.44 105.078 16.184C105.078 16.072 105.094 15.944 105.126 15.8C105.158 15.656 105.182 15.552 105.198 15.488C105.278 15.248 105.318 15.024 105.318 14.816C105.318 14.608 105.262 14.448 105.15 14.336C105.054 14.224 104.91 14.168 104.718 14.168C104.35 14.168 104.006 14.336 103.686 14.672C103.366 14.992 103.11 15.432 102.918 15.992C102.726 16.552 102.63 17.168 102.63 17.84C102.63 19.696 103.438 20.624 105.054 20.624C105.71 20.624 106.414 20.408 107.166 19.976C107.934 19.528 108.686 18.864 109.422 17.984C109.614 17.76 109.83 17.648 110.07 17.648C110.278 17.648 110.438 17.744 110.55 17.936C110.678 18.128 110.742 18.392 110.742 18.728C110.742 19.336 110.59 19.832 110.286 20.216C109.534 21.144 108.63 21.864 107.574 22.376C106.534 22.872 105.526 23.12 104.55 23.12ZM118.138 17.648C118.346 17.648 118.506 17.744 118.618 17.936C118.746 18.128 118.81 18.392 118.81 18.728C118.81 19.368 118.658 19.864 118.354 20.216C117.666 21.064 116.914 21.76 116.098 22.304C115.298 22.848 114.386 23.12 113.362 23.12C111.954 23.12 110.906 22.48 110.218 21.2C109.546 19.92 109.21 18.264 109.21 16.232C109.21 14.28 109.458 12.056 109.954 9.56C110.466 7.064 111.21 4.92 112.186 3.128C113.178 1.336 114.354 0.439999 115.714 0.439999C116.482 0.439999 117.082 0.799999 117.514 1.52C117.962 2.224 118.186 3.24 118.186 4.568C118.186 6.472 117.658 8.68 116.602 11.192C115.546 13.704 114.114 16.192 112.306 18.656C112.418 19.312 112.602 19.784 112.858 20.072C113.114 20.344 113.45 20.48 113.866 20.48C114.522 20.48 115.098 20.296 115.594 19.928C116.09 19.544 116.722 18.896 117.49 17.984C117.682 17.76 117.898 17.648 118.138 17.648ZM115.186 2.816C114.818 2.816 114.402 3.48 113.938 4.808C113.474 6.136 113.066 7.784 112.714 9.752C112.362 11.72 112.17 13.608 112.138 15.416C113.274 13.544 114.178 11.672 114.85 9.8C115.522 7.912 115.858 6.192 115.858 4.64C115.858 3.424 115.634 2.816 115.186 2.816ZM119.635 23.12C118.723 23.12 117.979 22.76 117.403 22.04C116.843 21.32 116.563 20.376 116.563 19.208C116.563 17.928 116.859 16.72 117.451 15.584C118.043 14.432 118.827 13.512 119.803 12.824C120.795 12.12 121.843 11.768 122.947 11.768C123.299 11.768 123.531 11.84 123.643 11.984C123.771 12.112 123.875 12.352 123.955 12.704C124.259 12.64 124.595 12.608 124.963 12.608C125.347 12.608 125.643 12.704 125.851 12.896C126.059 13.088 126.163 13.36 126.163 13.712C126.163 14.08 126.083 14.72 125.923 15.632C125.747 16.608 125.611 17.544 125.515 18.44C125.419 19.32 125.371 20.312 125.371 21.416C125.371 22.024 125.243 22.464 124.987 22.736C124.747 22.992 124.347 23.12 123.787 23.12C123.243 23.12 122.835 22.992 122.563 22.736C122.307 22.464 122.179 22.032 122.179 21.44L122.203 21.056C121.707 22.432 120.851 23.12 119.635 23.12ZM120.571 20.696C121.019 20.696 121.427 20.384 121.795 19.76C122.163 19.136 122.491 18.024 122.779 16.424L123.235 14C122.579 14.016 121.971 14.272 121.411 14.768C120.851 15.248 120.403 15.888 120.067 16.688C119.731 17.488 119.563 18.336 119.563 19.232C119.563 19.712 119.651 20.08 119.827 20.336C120.019 20.576 120.267 20.696 120.571 20.696Z" fill="#70BF73"/>
</svg>
