<svg width="49" height="44" viewBox="0 0 49 44" fill="none" xmlns="http://www.w3.org/2000/svg">
<path d="M25.6414 10.9679L25.5471 10.939C25.197 10.8318 25.0028 10.4571 25.105 10.1051L25.6414 10.9679ZM25.6414 10.9679L25.647 10.9612M25.6414 10.9679L25.647 10.9612M25.647 10.9612C25.9669 11.0066 26.2747 10.8054 26.367 10.4859C27.1757 7.69614 29.7222 5.75083 32.5549 5.75083C32.922 5.75083 33.213 5.4463 33.213 5.07919C33.213 4.71207 32.922 4.40756 32.5549 4.40756C29.0219 4.40756 26.0567 6.82223 25.1051 10.105L25.647 10.9612Z" fill="#483EA8" stroke="#F9FFF9" stroke-width="0.3"/>
<path d="M39.668 30.6392H36.6195C36.3389 30.6392 36.1114 30.4056 36.1114 30.1176C36.1114 29.8296 36.3389 29.596 36.6195 29.596H39.668C43.8704 29.596 47.2895 26.0857 47.2895 21.7715C47.2895 17.4573 43.8704 13.9471 39.668 13.9471H39.5947C39.4474 13.9471 39.3073 13.8815 39.2107 13.7671C39.1142 13.6527 39.0707 13.5011 39.0917 13.3513C39.1371 13.0264 39.1599 12.7 39.1599 12.3822C39.1599 8.64326 36.1966 5.60098 32.5546 5.60098C31.1377 5.60098 29.7865 6.05555 28.6469 6.91585C28.3965 7.10476 28.0408 7.02093 27.896 6.73812C24.6685 0.428666 16.2386 -0.41863 11.8681 5.07005C10.027 7.38235 9.30358 10.3903 9.88324 13.3219C9.94712 13.6457 9.70577 13.9475 9.3853 13.9475H9.1817C4.97938 13.9475 1.5602 17.4577 1.5602 21.7719C1.5602 26.0861 4.97938 29.5964 9.1817 29.5964H12.2303C12.5108 29.5964 12.7384 29.83 12.7384 30.118C12.7384 30.406 12.5108 30.6396 12.2303 30.6396H9.1817C4.41894 30.6396 0.543945 26.6615 0.543945 21.7719C0.543945 17.0195 4.20442 13.1281 8.78284 12.9135C8.35276 9.87198 9.17517 6.80405 11.0812 4.40982C15.7605 -1.46707 24.7279 -0.808349 28.5186 5.74481C29.7279 4.96646 31.1117 4.55814 32.5544 4.55814C36.9669 4.55814 40.4634 8.41375 40.1574 12.9184C44.6937 13.1795 48.3056 17.0504 48.3056 21.7715C48.3056 26.6615 44.4306 30.6393 39.6678 30.6393L39.668 30.6392Z" fill="#483EA8"/>
<path d="M11.5041 29.8231C11.5041 37.093 17.266 43.014 24.3567 43.014C31.4476 43.014 37.2094 37.0929 37.2094 29.8231C37.2094 22.5532 31.4476 16.6322 24.3567 16.6322C17.2659 16.6322 11.5041 22.5532 11.5041 29.8231ZM12.8205 29.8231C12.8205 23.2869 17.9995 17.9757 24.3567 17.9757C30.7139 17.9757 35.8929 23.2868 35.8929 29.8231C35.8929 36.3592 30.7139 41.6705 24.3567 41.6705C17.9996 41.6705 12.8205 36.3593 12.8205 29.8231Z" fill="#483EA8" stroke="#F9FFF9" stroke-width="0.3"/>
<path d="M24.067 35.0728C24.067 35.3628 24.2971 35.6047 24.589 35.6047C24.8809 35.6047 25.111 35.3631 25.111 35.0728V25.1436C25.111 24.8536 24.881 24.6117 24.589 24.6117C24.2971 24.6117 24.067 24.8536 24.067 25.1436V35.0728Z" fill="#483EA8" stroke="#483EA8" stroke-width="0.3"/>
<path d="M24.5889 25.8995L27.1943 28.5743C27.2958 28.6785 27.4302 28.7315 27.5648 28.7315L24.5889 25.8995ZM24.5889 25.8995L21.9836 28.5742L21.9835 28.5743L24.5889 25.8995ZM24.9594 24.7698C24.7552 24.5602 24.4223 24.56 24.2183 24.7699L27.5648 28.7315C27.699 28.7315 27.8336 28.679 27.9353 28.5742C28.1373 28.3668 28.1373 28.0323 27.9353 27.8249L24.9594 24.7698Z" fill="#483EA8" stroke="#483EA8" stroke-width="0.3"/>
</svg>
